<?xml version="1.0" encoding="UTF-8"?>
<svg xmlns="http://www.w3.org/2000/svg" xmlns:xlink="http://www.w3.org/1999/xlink" width="32px" height="32px" viewBox="0 0 32 32" version="1.1">
<defs>
<clipPath id="clip1">
  <path d="M 4.570312 4.570312 L 27.429688 4.570312 L 27.429688 27.429688 L 4.570312 27.429688 Z M 4.570312 4.570312 "/>
</clipPath>
<linearGradient id="linear0" gradientUnits="userSpaceOnUse" x1="1.15887" y1="84.300598" x2="79.427803" y2="164.701004" gradientTransform="matrix(0.190476,0,0,0.190476,0,0)">
<stop offset="0" style="stop-color:rgb(100%,89.411765%,50.196078%);stop-opacity:1;"/>
<stop offset="0.458483" style="stop-color:rgb(100%,26.27451%,76.470588%);stop-opacity:1;"/>
<stop offset="0.979531" style="stop-color:rgb(25.490196%,33.72549%,87.843137%);stop-opacity:1;"/>
</linearGradient>
</defs>
<g id="surface1">
<path style=" stroke:none;fill-rule:nonzero;fill:rgb(100%,100%,100%);fill-opacity:1;" d="M 16 0 C 24.835938 0 32 7.164062 32 16 C 32 24.835938 24.835938 32 16 32 C 7.164062 32 0 24.835938 0 16 C 0 7.164062 7.164062 0 16 0 Z M 16 0 "/>
<g clip-path="url(#clip1)" clip-rule="nonzero">
<path style=" stroke:none;fill-rule:nonzero;fill:url(#linear0);" d="M 16 4.570312 C 9.683594 4.570312 4.570312 9.683594 4.570312 16 C 4.570312 22.316406 9.683594 27.429688 16 27.429688 C 22.316406 27.429688 27.429688 22.316406 27.429688 16 C 27.429688 9.683594 22.316406 4.570312 16 4.570312 Z M 16 25.207031 C 10.910156 25.207031 6.792969 21.089844 6.792969 16 C 6.792969 15.121094 7.230469 13.085938 10.378906 13.085938 C 13.523438 13.085938 16.324219 16.140625 20.09375 16.578125 C 21.367188 16.742188 22.386719 16.71875 23.148438 16.625 C 24.257812 16.484375 25.160156 17.550781 24.835938 18.636719 C 23.703125 22.429688 20.1875 25.207031 16 25.207031 Z M 16 25.207031 "/>
</g>
<path style=" stroke:none;fill-rule:evenodd;fill:rgb(83.529413%,85.09804%,86.666667%);fill-opacity:1;" d="M 16 31.808594 C 24.730469 31.808594 31.808594 24.730469 31.808594 16 C 31.808594 7.269531 24.730469 0.191406 16 0.191406 C 7.269531 0.191406 0.191406 7.269531 0.191406 16 C 0.191406 24.730469 7.269531 31.808594 16 31.808594 Z M 16 32 C 24.835938 32 32 24.835938 32 16 C 32 7.164062 24.835938 0 16 0 C 7.164062 0 0 7.164062 0 16 C 0 24.835938 7.164062 32 16 32 Z M 16 32 "/>
</g>
</svg>
